<svg width="512" height="512" viewBox="0 0 512 512" fill="none" xmlns="http://www.w3.org/2000/svg">
<g clip-path="url(#clip0_1033_12)">
<g clip-path="url(#clip1_1033_12)">
<path fill-rule="evenodd" clip-rule="evenodd" d="M82.6963 255.302V444.077L118.7 443.128L154.704 442.18L156.378 319.487L158.053 196.794L240.108 310.965C285.238 373.758 324.751 428.219 327.913 431.989C333.385 438.514 333.66 435.879 333.653 377.067L333.643 315.293L248.082 196.754C201.023 131.557 160.153 75.5868 157.256 72.3712C152.885 67.5194 146.103 66.5277 117.344 66.5277H82.6963V255.302ZM357.329 253.406V440.51H394.196H431.067L430.2 254.354L429.336 68.1973L393.332 67.249L357.329 66.3006V253.406ZM454.455 103.258V139.989H549.762H645.073L653.523 150.841C658.175 156.811 706.209 224.051 760.271 300.267L858.563 438.841L973.008 439.719L1087.45 440.597V305.319V170.041H1050.61H1013.77V268.545V367.049H955.505H897.243L865.69 322.806C848.335 298.474 801.141 231.982 760.814 175.049C720.486 118.117 685.923 70.4311 684.007 69.0821C682.091 67.7331 629.66 66.6078 567.489 66.5778L454.455 66.5277V103.258ZM1110.89 103.258V139.989H1173.13C1207.36 139.989 1234.87 141.214 1234.25 142.71C1233.64 144.206 1207.25 169.373 1175.6 198.64C1143.95 227.905 1117.75 253.198 1117.37 254.848C1116.99 256.498 1160.96 298.878 1215.1 349.028L1313.52 440.213L1367.11 440.27L1420.69 440.33L1397.13 417.881C1384.18 405.533 1339.33 363.927 1297.48 325.421C1225.66 259.342 1221.71 255.092 1227.26 249.846C1230.49 246.791 1275.34 205.529 1326.91 158.153C1378.49 110.781 1421.19 70.7851 1421.81 69.2725C1422.42 67.7632 1352.72 66.5277 1266.91 66.5277H1110.89V103.258ZM1484.89 95.5414C1417.16 159.539 1395.95 179.514 1368.73 204.968C1353.1 219.587 1326.94 244.376 1310.58 260.06L1280.86 288.577L1306.93 312.789C1321.27 326.102 1333.9 336.984 1334.99 336.964C1336.07 336.947 1346.76 327.965 1358.73 317.009L1380.5 297.088L1447.49 297.843L1514.47 298.597L1515.37 369.554L1516.28 440.51H1553.05H1589.83V253.519V66.5277H1552.71H1515.59L1484.89 95.5414ZM821.189 122.572C800.927 151.435 784.499 176.575 784.683 178.442C784.868 180.309 794.47 195.011 806.024 211.112L827.027 240.39L862.619 190.189L898.207 139.989H992.828H1087.45V104.928V69.8668L972.74 69.9804L858.03 70.0939L821.189 122.572ZM1472.6 210.184L1434.09 246.744L1474.28 245.956L1514.47 245.171L1515.42 209.276C1515.94 189.531 1515.19 173.437 1513.75 173.503C1512.3 173.57 1493.79 190.076 1472.6 210.184ZM454.455 255.189V290.249H533.16H611.866V255.189V220.128H533.16H454.455V255.189ZM682.393 318.519L647.987 367.049H551.219H454.455V403.78V440.51H569.753H685.052L720.53 390.527C740.046 363.036 756.875 338.296 757.934 335.548C759.447 331.611 733.049 288.874 719.053 272.606C717.814 271.166 701.319 291.826 682.393 318.519ZM1167.3 402.958L1134.95 438.841L1183.9 439.769L1232.84 440.697L1244.71 428.65L1256.58 416.602L1229.85 391.826C1215.14 378.199 1202.33 367.056 1201.38 367.063C1200.43 367.066 1185.09 383.221 1167.3 402.958Z" fill="#7C3AED"/>
</g>
</g>
<defs>
<clipPath id="clip0_1033_12">
<rect width="512" height="512" fill="white"/>
</clipPath>
<clipPath id="clip1_1033_12">
<rect width="347.608" height="377.725" fill="white" transform="translate(82.6963 66.3006)"/>
</clipPath>
</defs>
</svg>
