<svg width="453" height="115" viewBox="0 0 453 115" fill="none" xmlns="http://www.w3.org/2000/svg">
<path fill-rule="evenodd" clip-rule="evenodd" d="M2 57.534V114.068L12.75 113.784L23.5 113.5L24 76.756L24.5 40.012L49 74.204C62.475 93.009 74.273 109.319 75.217 110.448C76.851 112.402 76.933 111.613 76.931 94L76.928 75.5L51.381 40C37.33 20.475 25.127 3.71301 24.262 2.75001C22.957 1.29701 20.932 1.00001 12.345 1.00001H2V57.534ZM84 56.966V113H95.008H106.017L105.758 57.25L105.5 1.50001L94.75 1.21601L84 0.932007V56.966ZM113 12V23H141.457H169.915L172.438 26.25C173.827 28.038 188.169 48.175 204.311 71L233.659 112.5L267.83 112.763L302 113.026V72.513V32H291H280V61.5V91H262.604H245.208L235.787 77.75C230.605 70.463 216.514 50.55 204.473 33.5C192.432 16.45 182.112 2.16901 181.54 1.76501C180.968 1.36101 165.313 1.02401 146.75 1.01501L113 1.00001V12ZM309 12V23H327.583C337.804 23 346.017 23.367 345.833 23.815C345.65 24.263 337.769 31.8 328.32 40.565C318.871 49.329 311.046 56.904 310.933 57.398C310.819 57.892 323.95 70.584 340.113 85.603L369.5 112.911L385.5 112.928L401.5 112.946L394.466 106.223C390.597 102.525 377.207 90.065 364.711 78.533C343.268 58.744 342.089 57.471 343.745 55.9C344.71 54.985 358.1 42.628 373.5 28.44C388.9 14.253 401.65 2.27501 401.833 1.82201C402.017 1.37001 381.204 1.00001 355.583 1.00001H309V12ZM420.668 9.68901C400.444 28.855 394.113 34.837 385.986 42.46C381.319 46.838 373.506 54.262 368.624 58.959L359.748 67.499L367.534 74.75C371.816 78.737 375.586 81.996 375.91 81.99C376.235 81.985 379.425 79.295 383 76.014L389.5 70.048L409.5 70.274L429.5 70.5L429.77 91.75L430.04 113H441.02H452V57V1.00001H440.918H429.836L420.668 9.68901ZM222.5 17.784C216.45 26.428 211.545 33.957 211.6 34.516C211.655 35.075 214.522 39.478 217.972 44.3L224.243 53.068L234.87 38.034L245.496 23H273.748H302V12.5V2.00001L267.75 2.03401L233.5 2.06801L222.5 17.784ZM417 44.022L405.5 54.971L417.5 54.735L429.5 54.5L429.784 43.75C429.94 37.837 429.715 33.017 429.284 33.037C428.853 33.057 423.325 38 417 44.022ZM113 57.5V68H136.5H160V57.5V47H136.5H113V57.5ZM181.058 76.466L170.785 91H141.892H113V102V113H147.426H181.852L192.445 98.031C198.272 89.798 203.297 82.389 203.613 81.566C204.065 80.387 196.183 67.588 192.004 62.716C191.634 62.285 186.709 68.472 181.058 76.466ZM325.842 101.754L316.184 112.5L330.797 112.778L345.411 113.056L348.955 109.448L352.5 105.84L344.518 98.42C340.127 94.339 336.302 91.002 336.018 91.004C335.733 91.005 331.154 95.843 325.842 101.754Z" fill="black"/>
</svg>
